<svg height="480pt" viewBox="0 0 480 480" width="480pt" xmlns="http://www.w3.org/2000/svg"><path d="m32 296h80v144h-80zm0 0" fill="#9bc9ff"/><path d="m256 200h80v240h-80zm0 0" fill="#9bc9ff"/><path d="m144 104h80v336h-80zm0 0" fill="#9bc9ff"/><path d="m368 8h80v432h-80zm0 0" fill="#9bc9ff"/><g fill="#1e81ce"><path d="m0 464h480v16h-480zm0 0"/><path d="m112 448h-80c-4.417969 0-8-3.582031-8-8v-144c0-4.417969 3.582031-8 8-8h80c4.417969 0 8 3.582031 8 8v144c0 4.417969-3.582031 8-8 8zm-72-16h64v-128h-64zm0 0"/><path d="m336 448h-80c-4.417969 0-8-3.582031-8-8v-240c0-4.417969 3.582031-8 8-8h80c4.417969 0 8 3.582031 8 8v240c0 4.417969-3.582031 8-8 8zm-72-16h64v-224h-64zm0 0"/><path d="m224 448h-80c-4.417969 0-8-3.582031-8-8v-336c0-4.417969 3.582031-8 8-8h80c4.417969 0 8 3.582031 8 8v336c0 4.417969-3.582031 8-8 8zm-72-16h64v-320h-64zm0 0"/><path d="m448 448h-80c-4.417969 0-8-3.582031-8-8v-432c0-4.417969 3.582031-8 8-8h80c4.417969 0 8 3.582031 8 8v432c0 4.417969-3.582031 8-8 8zm-72-16h64v-416h-64zm0 0"/></g></svg>