<svg height="480pt" viewBox="-1 0 480 480" width="480pt" xmlns="http://www.w3.org/2000/svg"><path d="m224 424c0 26.507812-21.492188 48-48 48s-48-21.492188-48-48 21.492188-48 48-48 48 21.492188 48 48zm0 0" fill="#9bc9ff"/><path d="m416 424c0 26.507812-21.492188 48-48 48s-48-21.492188-48-48 21.492188-48 48-48 48 21.492188 48 48zm0 0" fill="#9bc9ff"/><g fill="#1e81ce"><path d="m176 368c-30.929688 0-56 25.070312-56 56s25.070312 56 56 56 56-25.070312 56-56c-.035156-30.914062-25.085938-55.964844-56-56zm0 96c-22.089844 0-40-17.910156-40-40s17.910156-40 40-40 40 17.910156 40 40c-.027344 22.082031-17.917969 39.972656-40 40zm0 0"/><path d="m368 368c-30.929688 0-56 25.070312-56 56s25.070312 56 56 56 56-25.070312 56-56c-.035156-30.914062-25.085938-55.964844-56-56zm0 96c-22.089844 0-40-17.910156-40-40s17.910156-40 40-40 40 17.910156 40 40c-.027344 22.082031-17.917969 39.972656-40 40zm0 0"/><path d="m469.441406 112h-388.585937l-25.070313-105.839844c-.855468-3.609375-4.078125-6.160156-7.785156-6.160156h-40c-4.417969 0-8 3.582031-8 8s3.582031 8 8 8h33.671875l70.542969 297.839844c.855468 3.609375 4.078125 6.160156 7.785156 6.160156h304c4.417969 0 8-3.582031 8-8s-3.582031-8-8-8h-297.671875l-11.367187-48h324.160156c4.417968 0 8-3.582031 8-8s-3.582032-8-8-8h-327.921875l-11.367188-48h354.488281c4.417969 0 8-3.582031 8-8s-3.582031-8-8-8h-358.320312l-11.359375-48h384.800781c4.417969 0 8-3.582031 8-8s-3.582031-8-8-8zm0 0"/></g></svg>