<svg height="480pt" viewBox="0 0 480 480" width="480pt" xmlns="http://www.w3.org/2000/svg"><path d="m288 56c0 26.507812-21.492188 48-48 48s-48-21.492188-48-48 21.492188-48 48-48 48 21.492188 48 48zm0 0" fill="#9bc9ff"/><path d="m440 128c0 22.089844-17.910156 40-40 40s-40-17.910156-40-40 17.910156-40 40-40 40 17.910156 40 40zm0 0" fill="#9bc9ff"/><path d="m120 128c0 22.089844-17.910156 40-40 40s-40-17.910156-40-40 17.910156-40 40-40 40 17.910156 40 40zm0 0" fill="#9bc9ff"/><g fill="#1e81ce"><path d="m240 112c-30.929688 0-56-25.070312-56-56s25.070312-56 56-56 56 25.070312 56 56c-.035156 30.914062-25.085938 55.964844-56 56zm0-96c-22.089844 0-40 17.910156-40 40s17.910156 40 40 40 40-17.910156 40-40c-.027344-22.082031-17.917969-39.972656-40-40zm0 0"/><path d="m400 176c-26.507812 0-48-21.492188-48-48s21.492188-48 48-48 48 21.492188 48 48c-.027344 26.5-21.5 47.972656-48 48zm0-80c-17.671875 0-32 14.328125-32 32s14.328125 32 32 32 32-14.328125 32-32-14.328125-32-32-32zm0 0"/><path d="m80 176c-26.507812 0-48-21.492188-48-48s21.492188-48 48-48 48 21.492188 48 48c-.027344 26.5-21.5 47.972656-48 48zm0-80c-17.671875 0-32 14.328125-32 32s14.328125 32 32 32 32-14.328125 32-32-14.328125-32-32-32zm0 0"/><path d="m336 328v-136c-.042969-39.746094-32.253906-71.957031-72-72h-48c-39.746094.042969-71.957031 32.253906-72 72v136h32v152h16v-184h-16v16h-16v-120c.035156-30.914062 25.085938-55.964844 56-56h48c30.914062.035156 55.964844 25.085938 56 56v120h-16v-16h-16v184h16v-152zm0 0"/><path d="m232 328h16v152h-16zm0 0"/><path d="m480 240c-.035156-30.914062-25.085938-55.964844-56-56h-72v16h72c22.082031.027344 39.972656 17.917969 40 40v104h-16v-16h-16v152h16v-120h32zm0 0"/><path d="m352 344h-32v16h32v120h16v-152h-16zm0 0"/><path d="m392 360h16v120h-16zm0 0"/><path d="m56 200h72v-16h-72c-30.914062.035156-55.9648438 25.085938-56 56v120h32v120h16v-152h-16v16h-16v-104c.027344-22.082031 17.917969-39.972656 40-40zm0 0"/><path d="m128 328h-16v152h16v-120h32v-16h-32zm0 0"/><path d="m72 360h16v120h-16zm0 0"/></g></svg>